<svg version="1.1" xmlns="http://www.w3.org/2000/svg" width="32" height="32" viewBox="0 0 32 32">
    <path d="M8.628 10.97c-0.333 0-0.653 0.14-0.889 0.391s-0.368 0.589-0.368 0.943v10.541c0 0.737 0.563 1.334 1.258 1.334s1.258-0.597 1.258-1.334v-10.539c0.001-0.354-0.132-0.694-0.368-0.945s-0.557-0.391-0.89-0.391zM16 0c-0.333 0-0.653 0.141-0.889 0.391s-0.368 0.589-0.368 0.943v29.333c0 0.736 0.563 1.333 1.257 1.333s1.257-0.597 1.257-1.333v-29.333c0-0.354-0.132-0.693-0.368-0.943s-0.555-0.391-0.889-0.391zM30.743 13.781c-0.334-0.001-0.654 0.14-0.89 0.391s-0.369 0.591-0.368 0.945v5.773c0 0.737 0.563 1.334 1.258 1.334s1.258-0.597 1.258-1.334v-5.775c0.001-0.354-0.132-0.694-0.367-0.944s-0.556-0.391-0.889-0.391v0.002zM1.257 13.781c-0.334 0-0.654 0.141-0.889 0.391s-0.368 0.59-0.367 0.944v5.773c0 0.737 0.563 1.334 1.258 1.334s1.258-0.597 1.258-1.334v-5.775c0.001-0.354-0.132-0.694-0.368-0.945s-0.557-0.391-0.89-0.391v0.002zM23.372 5.307c-0.334-0.001-0.654 0.14-0.89 0.391s-0.369 0.591-0.368 0.945v20.113c0 0.738 0.563 1.335 1.259 1.335s1.259-0.598 1.259-1.335v-20.113c0.001-0.354-0.132-0.694-0.368-0.945s-0.557-0.391-0.89-0.391z"></path>
</svg>
