<svg version="1.1" xmlns="http://www.w3.org/2000/svg" width="32" height="32" viewBox="0 0 32 32">
    <path d="M1.067 0v0c0.64 0 1.067 0.427 1.067 1.067v29.867c0 0.64-0.427 1.067-1.067 1.067v0c-0.64 0-1.067-0.427-1.067-1.067v-29.867c0-0.64 0.427-1.067 1.067-1.067z"></path>
    <path d="M32 30.933v0c0 0.64-0.427 1.067-1.067 1.067h-29.867c-0.64 0-1.067-0.427-1.067-1.067v0c0-0.64 0.427-1.067 1.067-1.067h29.867c0.64 0 1.067 0.427 1.067 1.067z"></path>
    <path d="M6.4 20.267c-0.213 0-0.427 0-0.64-0.213-0.427-0.427-0.64-1.067-0.213-1.493l7.040-8.533c0.213-0.213 0.64-0.427 0.853-0.427s0.64 0.213 0.853 0.427l6.4 7.467 6.187-7.467c0.427-0.427 1.067-0.427 1.493-0.213 0.427 0.427 0.427 1.067 0.213 1.493l-7.040 8.533c-0.213 0.213-0.427 0.427-0.853 0.427-0.213 0-0.64-0.213-0.853-0.427l-6.4-7.467-6.187 7.467c-0.213 0.213-0.64 0.427-0.853 0.427z"></path>
</svg>
