<svg version="1.1" xmlns="http://www.w3.org/2000/svg" width="32" height="32" viewBox="0 0 32 32">
    <path d="M30.844 29.689h-29.69c-0.637 0-1.154 0.517-1.154 1.156 0 0.638 0.517 1.155 1.154 1.155h29.692c0.637 0 1.154-0.517 1.154-1.155 0-0.639-0.516-1.156-1.154-1.156h-0.002zM15.976 27.572c0.329 0 0.626-0.135 0.839-0.354l12.054-12.070c0.216-0.214 0.351-0.511 0.352-0.839 0-0.654-0.533-1.184-1.183-1.184-0.329-0.001-0.624 0.134-0.837 0.348l-10.043 10.056v-22.343c0-0.656-0.529-1.187-1.181-1.187-0.654 0-1.182 0.531-1.182 1.185l0.001 22.344-10.042-10.056c-0.213-0.214-0.511-0.348-0.837-0.347-0.653-0.001-1.182 0.53-1.184 1.181 0 0.329 0.134 0.628 0.35 0.84l12.052 12.072c0.215 0.217 0.512 0.353 0.841 0.353z"></path>
</svg>
