<svg version="1.1" xmlns="http://www.w3.org/2000/svg" width="32" height="32" viewBox="0 0 32 32">
    <path d="M0.8 28.2h30.2c0.4 0 0.8 0.4 0.8 1s-0.4 1-0.8 1h-30.2c-0.4 0-0.8-0.4-0.8-1s0.4-1 0.8-1z"></path>
    <path d="M5 23.8c-1.6 0-3-1.4-3-3v-6.6c0-1.6 1.4-3 3-3s3 1.4 3 3v6.6c0 1.8-1.4 3-3 3zM5 13.2c-0.6 0-1 0.6-1 1v6.6c0 0.6 0.4 1 1 1s1-0.4 1-1v-6.6c0-0.4-0.4-1-1-1z"></path>
    <path d="M27 23.8c-1.6 0-3-1.4-3-3v-12.8c0-1.6 1.4-3 3-3s3 1.4 3 3v12.8c0 1.8-1.4 3-3 3zM27 7c-0.6 0-1 0.4-1 1v12.8c0 0.6 0.4 1 1 1s1-0.4 1-1v-12.8c0-0.6-0.4-1-1-1z"></path>
    <path d="M16 23.8c-1.6 0-3-1.4-3-3v-17c0-1.6 1.4-3 3-3s3 1.4 3 3v17c0 1.8-1.4 3-3 3zM16 2.8c-0.6 0-1 0.4-1 1v17c0 0.6 0.4 1 1 1s1-0.4 1-1v-17c0-0.6-0.4-1-1-1z"></path>
</svg>
