<svg version="1.1" xmlns="http://www.w3.org/2000/svg" width="34" height="32" viewBox="0 0 34 32">
    <path d="M32.36 4.435h-22.058c-0.316-2.522-2.448-4.454-5.030-4.454-2.799 0-5.068 2.269-5.068 5.068s2.269 5.068 5.068 5.068c2.11 0 3.919-1.29 4.682-3.124l0.012-0.034h22.394c0.697 0 1.262-0.565 1.262-1.262s-0.565-1.262-1.262-1.262v0zM5.193 7.589c-1.366-0.035-2.46-1.151-2.46-2.522 0-1.394 1.13-2.523 2.523-2.523s2.523 1.129 2.523 2.522v0c-0.024 1.399-1.163 2.523-2.565 2.523-0.008 0-0.015-0-0.022-0h0.001z"></path>
    <path d="M7.506 21.047c-0.697 0-1.262 0.565-1.262 1.262s0.565 1.262 1.262 1.262h18.63c0.697 0 1.262-0.565 1.262-1.262s-0.565-1.262-1.262-1.262v0z"></path>
    <path d="M5.424 12.636c-0.697 0-1.262 0.565-1.262 1.262s0.565 1.262 1.262 1.262h22.815c0.697 0 1.262-0.565 1.262-1.262s-0.565-1.262-1.262-1.262v0z"></path>
    <path d="M11.669 29.457c-0.697 0-1.262 0.565-1.262 1.262s0.565 1.262 1.262 1.262h10.324c0.697 0 1.262-0.565 1.262-1.262s-0.565-1.262-1.262-1.262v0z"></path>
</svg>
