<svg version="1.1" xmlns="http://www.w3.org/2000/svg" width="32" height="32" viewBox="0 0 32 32">
    <path d="M19.174 31.97c-0.662 0-1.198-0.536-1.198-1.198s0.536-1.198 1.198-1.198h10.241l0.2-10.38c0.039-0.638 0.542-1.148 1.173-1.197l0.004-0c0.636 0.050 1.139 0.559 1.178 1.194l0 0.004v11.139c0 0.012 0 0.026 0 0.040 0 0.86-0.697 1.557-1.557 1.557-0.007 0-0.014-0-0.022-0h0.001zM0.030 12.806v-11.179c-0-0.006-0-0.013-0-0.020 0-0.871 0.706-1.577 1.577-1.577 0.007 0 0.014 0 0.021 0h11.178c0.662 0 1.198 0.536 1.198 1.198s-0.536 1.198-1.198 1.198h-10.38v10.38c0 0.662-0.536 1.198-1.198 1.198s-1.198-0.536-1.198-1.198v0zM1.627 31.97c-0.006 0-0.013 0-0.020 0-0.871 0-1.577-0.706-1.577-1.577 0-0.007 0-0.014 0-0.021v0.001-9.183c0-0.662 0.536-1.198 1.198-1.198s1.198 0.536 1.198 1.198v6.787l8.185-8.185c0.205-0.177 0.474-0.285 0.769-0.285s0.564 0.108 0.77 0.287l-0.001-0.001c0.174 0.206 0.279 0.475 0.279 0.769s-0.105 0.562-0.281 0.77l0.002-0.002-8.185 8.185h6.787c0.662 0 1.198 0.536 1.198 1.198s-0.536 1.198-1.198 1.198v0zM29.574 10.81v-6.787l-8.185 8.185c-0.189 0.111-0.416 0.176-0.658 0.176-0.338 0-0.647-0.127-0.88-0.337l0.001 0.001c-0.174-0.188-0.282-0.441-0.282-0.719s0.107-0.531 0.282-0.719l-0.001 0.001 8.185-8.185h-6.787c-0.662 0-1.198-0.536-1.198-1.198s0.536-1.198 1.198-1.198h9.183c0.006-0 0.013-0 0.020-0 0.871 0 1.577 0.706 1.577 1.577 0 0.007-0 0.014-0 0.021v-0.001 9.183c0 0.662-0.536 1.198-1.198 1.198s-1.198-0.536-1.198-1.198v0z"></path>
</svg>
