<svg version="1.1" xmlns="http://www.w3.org/2000/svg" width="32" height="32" viewBox="0 0 32 32">
    <path d="M19.176 31.979c-0.662 0-1.198-0.537-1.198-1.198s0.537-1.198 1.198-1.198h10.246l0.2-10.386c0.039-0.639 0.542-1.148 1.174-1.198l0.004-0c0.636 0.050 1.139 0.56 1.178 1.195l0 0.004v11.185c0 0.012 0.001 0.026 0.001 0.040 0 0.86-0.698 1.558-1.558 1.558-0.007 0-0.014-0-0.022-0h0.001z"></path>
    <path d="M0.021 12.804v-11.185c-0-0.006-0-0.013-0-0.020 0-0.871 0.706-1.578 1.578-1.578 0.007 0 0.014 0 0.021 0h11.184c0.641 0.049 1.149 0.557 1.198 1.194l0 0.004c-0.049 0.641-0.557 1.149-1.194 1.198l-0.004 0h-10.386v10.386c-0.049 0.641-0.557 1.149-1.194 1.198l-0.004 0c-0.641-0.049-1.149-0.557-1.198-1.194l-0-0.004z"></path>
    <path d="M10.867 19.535c0.006-0 0.013-0 0.020-0 0.871 0 1.578 0.706 1.578 1.578 0 0.007-0 0.014-0 0.021v-0.001 9.188c0 0.662-0.537 1.198-1.198 1.198s-1.198-0.537-1.198-1.198v0-6.791l-8.189 8.189c-0.208 0.179-0.481 0.288-0.779 0.288s-0.571-0.109-0.781-0.289l0.002 0.001c-0.17-0.208-0.273-0.476-0.273-0.769s0.103-0.561 0.275-0.771l-0.002 0.002 8.189-8.189h-6.831c-0.662 0-1.198-0.537-1.198-1.198s0.537-1.198 1.198-1.198v0z"></path>
    <path d="M21.992 1.599v6.791l8.189-8.189c0.192-0.115 0.423-0.183 0.671-0.183 0.342 0 0.654 0.13 0.888 0.344l-0.001-0.001c0.175 0.188 0.282 0.441 0.282 0.719s-0.107 0.531-0.282 0.72l0.001-0.001-8.209 8.209h6.791c0.662 0 1.198 0.537 1.198 1.198s-0.537 1.198-1.198 1.198h-9.188c-0.006 0-0.013 0-0.020 0-0.871 0-1.578-0.706-1.578-1.578 0-0.007 0-0.014 0-0.021v0.001-9.208c0-0.662 0.537-1.198 1.198-1.198s1.198 0.537 1.198 1.198v0z"></path>
</svg>
