<svg version="1.1" xmlns="http://www.w3.org/2000/svg" width="512" height="512" viewBox="0 0 512 512">
    <path d="M0 201.147v-127.991l41.808 41.744c47.411-71.728 127.725-114.888 213.797-114.9 141.593 0 256.395 114.607 256.395 256s-114.803 256-256.396 256c-104.379 0.024-198.352-63.132-237.62-159.695-4.568-11.225 0.844-24.022 12.087-28.579s24.055 0.842 28.62 12.067c32.555 80.007 110.426 132.336 196.913 132.324 117.329 0 212.445-94.968 212.445-212.118s-95.116-212.118-212.446-212.118c-75.793 0-144.173 40.041-181.988 102.758l54.571 54.505h-128.188z"></path>
</svg>
