<svg version="1.1" xmlns="http://www.w3.org/2000/svg" width="32" height="32" viewBox="0 0 32 32">
    <path d="M29.8 0h-27.6c-1.215 0-2.2 0.985-2.2 2.2v0 27.6c0 1.215 0.985 2.2 2.2 2.2h27.6c1.215 0 2.2-0.985 2.2-2.2v0-27.6c0-1.215-0.985-2.2-2.2-2.2v0zM2.2 29.8v-27.6h27.6v27.6z"></path>
    <path d="M10.78 4c-0.687 0.011-1.24 0.571-1.24 1.26 0 0 0 0 0 0v0 4.2h-4.32c-0.679 0.022-1.22 0.578-1.22 1.259 0 0.007 0 0.014 0 0.022v-0.001c-0 0.006-0 0.013-0 0.020 0 0.678 0.544 1.229 1.219 1.24h5.561c0.676-0.011 1.22-0.562 1.22-1.24 0-0.007-0-0.014-0-0.021v0.001-5.48c0-0.006 0-0.013 0-0.020 0-0.678-0.544-1.229-1.219-1.24h-0.001zM26.78 9.46h-4.32v-4.2c0-0 0-0 0-0 0-0.689-0.553-1.249-1.239-1.26h-0.001c-0.676 0.011-1.22 0.562-1.22 1.24 0 0.007 0 0.014 0 0.021v-0.001 5.48c-0 0.006-0 0.013-0 0.020 0 0.678 0.544 1.229 1.219 1.24h5.561c0.676-0.011 1.22-0.562 1.22-1.24 0-0.007-0-0.014-0-0.021v0.001c0-0.006 0-0.013 0-0.021 0-0.682-0.542-1.237-1.218-1.259l-0.002-0zM10.78 20h-5.56c-0.676 0.011-1.22 0.562-1.22 1.24 0 0.007 0 0.014 0 0.021v-0.001c-0 0.006-0 0.013-0 0.021 0 0.682 0.542 1.237 1.218 1.259l0.002 0h4.32v4.2c0 0 0 0 0 0 0 0.689 0.553 1.249 1.239 1.26h0.001c0.676-0.011 1.22-0.562 1.22-1.24 0-0.007-0-0.014-0-0.021v0.001-5.48c0-0.006 0-0.013 0-0.020 0-0.678-0.544-1.229-1.219-1.24h-0.001zM26.78 20h-5.56c-0.676 0.011-1.22 0.562-1.22 1.24 0 0.007 0 0.014 0 0.021v-0.001 5.48c-0 0.006-0 0.013-0 0.020 0 0.678 0.544 1.229 1.219 1.24h0.001c0.687-0.011 1.24-0.571 1.24-1.26 0-0 0-0 0-0v0-4.2h4.32c0.679-0.022 1.22-0.578 1.22-1.259 0-0.007-0-0.015-0-0.022v0.001c0-0.006 0-0.013 0-0.020 0-0.678-0.544-1.229-1.219-1.24h-0.001z"></path>
</svg>
