<svg height="24" viewBox="0 0 24 24" width="24" xmlns="http://www.w3.org/2000/svg">
    <path d="m12 1.5c5.7989899 0 10.5 4.70101013 10.5 10.5 0 5.7989899-4.7010101 10.5-10.5 10.5-5.79898987 0-10.5-4.7010101-10.5-10.5 0-5.79898987 4.70101013-10.5 10.5-10.5zm0 1.5c-4.97056275 0-9 4.02943725-9 9 0 4.9705627 4.02943725 9 9 9 4.9705627 0 9-4.0294373 9-9 0-4.97056275-4.0294373-9-9-9zm-3 4.875v8.25h-1.5v-8.25zm7.5 0v8.25h-1.5v-8.25zm-4.5 5.25c.517767 0 .9375.419733.9375.9375s-.419733.9375-.9375.9375-.9375-.419733-.9375-.9375.419733-.9375.9375-.9375zm0-4.125c.517767 0 .9375.41973305.9375.9375 0 .517767-.419733.9375-.9375.9375s-.9375-.419733-.9375-.9375c0-.51776695.419733-.9375.9375-.9375z" fill-rule="nonzero" />
</svg>
