<svg version="1.1" xmlns="http://www.w3.org/2000/svg" width="32" height="32" viewBox="0 0 32 32">
    <path d="M29 32h-26c-1.6 0-3-1.4-3-3v-26c0-1.6 1.4-3 3-3h26c1.6 0 3 1.4 3 3v26c0 1.6-1.4 3-3 3zM3 2c-0.6 0-1 0.4-1 1v26c0 0.6 0.4 1 1 1h26c0.6 0 1-0.4 1-1v-26c0-0.6-0.4-1-1-1h-26z"></path>
    <path d="M6 21c-0.2 0-0.4 0-0.6-0.2-0.4-0.4-0.4-1-0.2-1.4l6.6-8c0.2-0.2 0.6-0.4 0.8-0.4s0.6 0.2 0.8 0.4l6 7 5.8-7c0.4-0.4 1-0.4 1.4-0.2 0.4 0.4 0.4 1 0.2 1.4l-6.6 8c-0.2 0.2-0.4 0.4-0.8 0.4-0.2 0-0.6-0.2-0.8-0.4l-6-7-5.8 7c-0.2 0.2-0.6 0.4-0.8 0.4z"></path>
</svg>
