<svg version="1.1" xmlns="http://www.w3.org/2000/svg" width="32" height="32" viewBox="0 0 32 32">
    <path d="M30.293 31.787l-5.547-5.547c-2.773 2.347-6.187 3.627-9.813 3.627-8.32 0-14.933-6.613-14.933-14.933s6.613-14.933 14.933-14.933c8.32 0 14.933 6.613 14.933 14.933 0 3.627-1.28 7.040-3.627 9.813l5.547 5.547-1.493 1.493zM14.933 2.133c-7.040 0-12.8 5.76-12.8 12.8s5.76 12.8 12.8 12.8c2.987 0 5.973-1.067 8.32-3.2l1.28-1.28c2.133-2.347 3.2-5.333 3.2-8.32 0-7.040-5.76-12.8-12.8-12.8z"></path>
</svg>
