<svg version="1.1" xmlns="http://www.w3.org/2000/svg" width="32" height="32" viewBox="0 0 32 32">
    <path d="M29.538 2.462h-4.923v-2.462h6.154c0.326 0 0.639 0.13 0.87 0.36s0.36 0.544 0.36 0.87v6.154h-2.462v-4.923zM29.538 24.615h2.462v6.154c0 0.68-0.551 1.231-1.231 1.231h-6.154v-2.462h4.923v-4.923zM7.385 29.538v2.462h-6.154c-0.326 0-0.639-0.13-0.87-0.36s-0.36-0.544-0.36-0.87v-6.154h2.462v4.923h4.923zM2.462 2.462v4.923h-2.462v-6.154c0-0.326 0.13-0.639 0.36-0.87s0.544-0.36 0.87-0.36h6.309v2.462h-5.078zM12.308 0h7.385v2.462h-7.385v-2.462zM12.308 29.538h7.385v2.462h-7.385v-2.462zM0 12.308h2.462v7.385h-2.462v-7.385zM29.538 12.308h2.462v7.385h-2.462v-7.385z"></path>
</svg>
