<svg version="1.1" xmlns="http://www.w3.org/2000/svg" width="512" height="512" viewBox="0 0 512 512">
    <path d="M472.615 39.385h-78.769v-39.385h98.462c5.223 0 10.231 2.075 13.925 5.768s5.768 8.701 5.768 13.924v98.462h-39.385v-78.769zM472.615 393.846h39.385v98.462c0 10.875-8.817 19.692-19.692 19.692h-98.462v-39.385h78.769v-78.769zM118.154 472.615v39.385h-98.462c-5.223 0-10.232-2.075-13.925-5.768s-5.768-8.702-5.768-13.925v-98.462h39.385v78.769h78.769zM39.385 39.385v78.769h-39.385v-98.462c0-5.223 2.075-10.232 5.768-13.925s8.701-5.768 13.924-5.768h100.943v39.385h-81.251zM196.923 0.001h118.154v39.385h-118.154v-39.385zM196.923 472.615h118.154v39.385h-118.154v-39.385zM0.001 196.923h39.385v118.154h-39.385v-118.154zM472.615 196.923h39.385v118.154h-39.385v-118.154z"></path>
</svg>
