<svg height="14" viewBox="0 0 14 14" width="14" xmlns="http://www.w3.org/2000/svg">
    <g fill="none" fill-rule="evenodd">
        <g fill="#fff">
            <circle cx="4" cy="8" r="1" />
            <circle cx="5" cy="4" r="1" />
            <circle cx="9" cy="4" r="1" />
        </g>
        <path d="m3.27235335 1.6761119c1.47031684-1.02952694 3.21873715-1.365625 4.85695999-1.07676211s3.16624816 1.20268672 4.19577516 2.67300356c.7388055 1.05512367 1.1206639 2.2534373 1.1704891 3.45153172.0436106 1.04865781-.1668543 2.09710997-.6145934 3.04909362-.494968-.31183307-1.05803-.49207378-1.6336058-.53065417-.7684739-.05151019-1.55912562.14907212-2.23926069.62530782-.68005955.47618286-1.1389421 1.15045256-1.35350247 1.89019066-.16074735.5542075-.18410258 1.1451771-.06062147 1.7172293-1.04751749.0948995-2.1046345-.0660591-3.07509828-.4658128-1.1086379-.4566704-2.10401594-1.2253229-2.84278359-2.2803925-1.02952694-1.47031682-1.365625-3.21873713-1.07676211-4.85695997s1.20268672-3.1662482 2.67300356-4.19577513z" stroke="#fff" />
    </g>
</svg>
