<svg version="1.1" xmlns="http://www.w3.org/2000/svg" width="512" height="512" viewBox="0 0 512 512">
    <path d="M367.188 421.125c47.148 0 83.352-13.892 108.61-41.255 23.995-26.1 36.203-87.351 36.203-133.657 0-47.148-11.366-94.717-33.678-119.976-24.416-27.784-60.198-41.255-107.767-41.255h-107.767v336.142h104.399zM361.295 386.55h-63.2v-268.809h66.988c39.572 0 68.237 8.149 86.76 28.776 17.26 19.365 26.48 59.282 26.48 99.695 0 39.15-10.103 91.263-28.627 111.469-19.786 20.627-49.253 28.868-88.403 28.868z"></path>
    <path d="M105.662 427.019c31.151 0 56.409-9.68 75.775-29.041 18.944-18.901 28.626-43.33 28.626-73.293 0-19.36-5.052-35.495-15.155-48.401-9.262-12.907-22.732-22.126-40.413-28.119 32.835-11.985 49.253-36.877 49.253-73.754 0-27.658-8.84-49.323-26.1-65.457-17.681-16.133-41.256-23.97-69.88-23.97s-51.779 8.758-69.46 26.736c-18.523 17.978-29.468 42.87-31.994 74.676h34.099c2.105-22.126 8.84-39.182 20.627-51.167 11.366-11.985 26.942-17.517 47.148-17.517 19.365 0 34.94 5.071 45.885 16.133 10.103 10.141 15.577 24.431 15.577 42.87s-5.472 32.728-15.996 42.87c-10.524 9.68-25.678 14.751-45.885 14.751h-23.154v29.501h24.416c21.049 0 37.044 5.071 48.832 16.134s17.681 26.276 17.681 46.097c0 19.36-6.315 35.495-18.102 48.401-13.049 13.368-30.31 20.283-51.779 20.283-18.944 0-34.519-5.993-47.148-17.057-14.733-13.368-22.733-33.189-23.574-59.004h-34.94c2.526 36.877 14.313 64.996 35.783 84.357 18.102 15.673 41.255 23.97 69.88 23.97z"></path>
</svg>
