<svg version="1.1" xmlns="http://www.w3.org/2000/svg" width="39" height="32" viewBox="0 0 39 32">
    <path d="M31.702 10.073c-1.054-5.763-6.037-10.073-12.026-10.073s-10.972 4.31-12.015 9.998l-0.011 0.075c-4.341 0.982-7.534 4.806-7.534 9.376 0 0.372 0.021 0.739 0.062 1.1l-0.004-0.044c0.628 4.846 4.729 8.551 9.696 8.551 0.027 0 0.054-0 0.081-0l-0.004 0h2.993c0.675 0 1.222-0.547 1.222-1.222s-0.547-1.222-1.222-1.222v0 0h-3.054c-3.977 0-7.201-3.224-7.201-7.201s3.224-7.201 7.201-7.201v0c0-5.397 4.375-9.772 9.772-9.772s9.772 4.375 9.772 9.772v0c0.088-0.004 0.192-0.006 0.296-0.006 3.974 0 7.195 3.221 7.195 7.195s-3.221 7.195-7.195 7.195c-0.104 0-0.208-0.002-0.311-0.007l0.015 0h-3.665c-0.675 0-1.222 0.547-1.222 1.222s0.547 1.222 1.222 1.222v0h3.665c0.024 0 0.052 0 0.080 0 4.958 0 9.054-3.692 9.687-8.477l0.005-0.050c0.036-0.312 0.057-0.674 0.057-1.041 0-4.581-3.204-8.413-7.493-9.379l-0.064-0.012z"></path>
    <path d="M20.208 14.972c-0.219-0.209-0.516-0.337-0.843-0.337s-0.624 0.129-0.843 0.338l0-0-3.396 3.445c-0.218 0.22-0.353 0.521-0.354 0.855v0c0.005 0.329 0.139 0.626 0.354 0.843l-0-0c0.219 0.209 0.516 0.337 0.843 0.337s0.624-0.129 0.843-0.338l-0 0 1.356-1.368v12.032c0 0.675 0.547 1.222 1.222 1.222s1.222-0.547 1.222-1.222v0-12.020l1.344 1.368c0.209 0.218 0.504 0.354 0.83 0.354 0.005 0 0.009-0 0.014-0h-0.001c0.331-0.008 0.628-0.147 0.843-0.366l0-0c0.212-0.22 0.343-0.519 0.343-0.849s-0.131-0.63-0.344-0.849l0 0z"></path>
</svg>
