<svg version="1.1" xmlns="http://www.w3.org/2000/svg" width="32" height="32" viewBox="0 0 32 32">
    <path d="M7.009 10.023l7.296-5.856c0.343-0.275 0.813-0.329 1.21-0.139s0.649 0.591 0.649 1.031v21.801c-0 0.439-0.252 0.839-0.648 1.029s-0.865 0.137-1.208-0.137l-7.497-5.984h-5.667c-0.631 0-1.143-0.512-1.143-1.143v-9.459c0-0.631 0.512-1.143 1.143-1.143h5.866z"></path>
    <path d="M21.671 23.007c-0.452 0.431-1.166 0.419-1.604-0.027s-0.436-1.16 0.003-1.604c1.472-1.441 2.3-3.415 2.297-5.475 0.003-1.908-0.707-3.748-1.992-5.159-0.28-0.301-0.377-0.73-0.253-1.123s0.449-0.688 0.852-0.774c0.402-0.086 0.82 0.051 1.093 0.359 1.667 1.831 2.59 4.22 2.586 6.696 0.003 2.674-1.072 5.235-2.982 7.106v0z"></path>
    <path d="M27.104 27.962c-0.284 0.298-0.705 0.42-1.104 0.321s-0.714-0.405-0.824-0.801c-0.111-0.396-0-0.821 0.289-1.113 2.73-2.8 4.255-6.558 4.249-10.469 0-3.882-1.478-7.53-4.087-10.299-0.425-0.461-0.4-1.177 0.057-1.607s1.173-0.412 1.607 0.040c3.006 3.189 4.709 7.394 4.709 11.866 0 4.566-1.777 8.854-4.896 12.062z"></path>
</svg>
