<svg version="1.1" xmlns="http://www.w3.org/2000/svg" width="32" height="32" viewBox="0 0 32 32">
    <path d="M22.062 14.97h-5.073v-5.073c0-0.554-0.449-1.003-1.003-1.003s-1.003 0.449-1.003 1.003v0 5.073h-5.073c-0.554 0-1.003 0.449-1.003 1.003s0.449 1.003 1.003 1.003v0h5.073v5.013c0 0.554 0.449 1.003 1.003 1.003s1.003-0.449 1.003-1.003v0-5.013h5.013c0.554 0 1.003-0.449 1.003-1.003s-0.449-1.003-1.003-1.003v0z"></path>
    <path d="M26.574 25.999c2.824-2.755 4.576-6.597 4.576-10.849 0-8.367-6.783-15.15-15.15-15.15s-15.15 6.783-15.15 15.15c0 8.367 6.783 15.15 15.15 15.15 3.258 0 6.276-1.028 8.746-2.778l-0.047 0.032 3.369 4.011c0.224 0.268 0.559 0.437 0.932 0.437 0.67 0 1.214-0.543 1.214-1.214 0-0.296-0.106-0.568-0.283-0.779l0.002 0.002zM24.268 25.126l-0.842 0.602c-2.102 1.497-4.723 2.393-7.553 2.393-7.243 0-13.114-5.872-13.114-13.114s5.871-13.114 13.114-13.114c7.243 0 13.114 5.872 13.114 13.114 0 3.689-1.523 7.022-3.975 9.405l-0.003 0.003z"></path>
</svg>
