<svg height="31" viewBox="0 0 97 31" width="97" xmlns="http://www.w3.org/2000/svg"><g fill="#fff" fill-rule="evenodd" transform="translate(0 .0625)"><path d="m2.446115.0742695c-1.32588958 0-2.40434375 1.0740707-2.40434375 2.39411403s1.07845417 2.39382156 2.40434375 2.39382156 2.40434375-1.07377823 2.40434375-2.39382156-1.07845417-2.39411403-2.40434375-2.39411403" transform="translate(23.010417 .023203)"/><path d="m.23204292 23.3006269h3.46595625c.06922708 0 .13199166-.0401668.16068125-.1029517l10.45446458-22.89241762c.0531687-.1163081-.0322146-.24831243-.1605833-.24831243h-3.4659563c-.0691292 0-.1318937.04026424-.1605833.10295168l-10.45456252 22.89241757c-.05307083.1163081.0323125.2483125.16058334.2483125" transform="translate(24.0875 6.652667)"/><path d="m2.48757292.0742695c-1.32588959 0-2.40434375 1.0740707-2.40434375 2.39411403s1.07845416 2.39382156 2.40434375 2.39382156c1.32588958 0 2.40434375-1.07377823 2.40434375-2.39382156s-1.07845417-2.39411403-2.40434375-2.39411403" transform="translate(43.866667 .023203)"/><path d="m17.4206283.05694515h-3.4659562c-.0691292 0-.1318938.04026424-.1605834.10304917l-4.08253745 8.93954011h-8.13765833c-.1075125 0-.2050375.06278493-.24900209.16047204l-1.31139791 2.91052983c-.04513959.1002219.02849375.2135077.13884583.2135077h8.05922708l-4.87203958 10.6682704c-.05307083.1163081.0323125.2483125.16058333.2483125h3.46595625c.06922709 0 .13199167-.0401668.16058334-.1029517l10.45456253-22.89241762c.0531687-.1163081-.0322146-.24831243-.1605834-.24831243" transform="translate(0 6.652667)"/><path d="m88.2453102 16.6856012h-2.3656667c-.057575 0-.1042812.0503059-.1042812.1123109v.4521685c0 .0620049-.1053583.1121159-.1629333.1121159h-8.1528355c-.057575 0-.1042812.0504034-.1042812.1125059v2.0085327c0 .062005.0467062.1123109.1042812.1123109h8.1528355c.057575 0 .1629333.0502085.1629333.1123109v6.5331421c0 .0619075.0467062.1123109.1042812.1123109h2.3656667c.057575 0 .1040854-.0504034.1040854-.1123109v-6.6217624c0-.0621025.0468042-.1125059.1043792-.1125059h8.2350854c.057575 0 .1041833-.050111.1041833-.1121159v-1.9199124c0-.0621025-.0466083-.1125059-.1041833-.1125059h-8.2350854c-.057575 0-.1043792-.050111-.1043792-.1121159v-.4521685c0-.062005-.0465104-.1123109-.1040854-.1123109"/><path d="m96.684219 26.1518075c-3.9578896-.1114765-6.2973146-2.7413265-7.5708188-5.4024715-.0359354-.0748739.0162542-.1641767.0944896-.1641767h2.5724667c.0362291 0 .0694229.0209608.0878312.0544981 1.0067792 1.8302196 2.4509521 2.9112122 4.8307188 3.1399288.0532666.0050696.0941958.0526457.0941958.1102636l-.0000979 2.1481414c0 .0633698-.0497417.1155281-.1087854.1138163"/><path d="m77.4642446 26.1518075c3.9577916-.1114765 6.2973146-2.7413265 7.5708187-5.4024715.0359355-.0748739-.0162541-.1641767-.0944896-.1641767h-2.5724666c-.0362292 0-.0694229.0209608-.0878313.0544981-1.0067791 1.8302196-2.4509521 2.9112122-4.8308166 3.1399288-.0531688.0050696-.094098.0526457-.094098.1102636v2.1481414c0 .0633698.0497417.1155281.1088834.1138163"/><path d="m82.2474346 11.0463936.0828375.0187185-.0570854.0674645c-.8224021.9556178-2.8349813 2.2483634-4.7713813 2.6626074-.0483708.0104316-.0827396.055278-.0827396.1085087v2.2131687c0 .0722416.0621771.1255698.1275854.1094836.6848292-.1683689 3.0546084-.8443792 4.860975-2.3903118l.0785292-.0670746v2.375493c0 .062005.0466083.1122135.1041833.1122135h2.1235188c.057575 0 .1042813-.0502085.1042813-.1122135v-10.0640142c0-.0619075-.0467063-.11231092-.1042813-.11231092h-2.1235188c-.057575 0-.1041833.05040342-.1041833.11231092v2.62409795l-.0613937-.01842601c-.9334396-.28009486-2.0094459-1.10546317-2.8149084-2.72188255-.0179187-.0358771-.0526791-.05908022-.090475-.05908022h-2.299475c-.0741229 0-.1263125.07994354-.0976229.15355009.6211833 1.5938987 2.3375646 4.37115674 5.1251542 4.98769694"/><path d="m66.6262894 10.9951713h-1.2381563c-.0401458 0-.0768646.0233981-.0953708.0606401l-1.1418063 2.3095883c-.0370125.0747765.0148834.1638843.0953709.1638843h2.3630229c4.9453792 0 6.1433896-2.7184704 7.2068625-5.14543923.5133771-1.17175781.8783125-2.03846278.9769146-2.33006171.0247729-.0731191-.0274167-.14867549-.1016375-.14867549h-2.4150167c-.0422021 0-.0803896.02573792-.0978187.06580718l-.8186813 1.87340862c-.9938542 2.18587083-1.8460229 3.15084793-4.7336833 3.15084793"/><path d="m73.1139344 21.4007394h.9736833c.0593375 0 .1074146-.0503059.1074146-.1122134v-2.2473884c0-.0621025-.0480771-.112311-.1074146-.112311h-.7099937c-4.6595605-.1208902-6.7445-3.6464978-6.9835146-4.1677882-.0179188-.0389968-.0545396-.0617125-.0957625-.0617125h-2.5366292c-.0804875 0-.1279771.0864755-.0954687.1634943.7714854 1.8228102 3.1349 6.2135629 9.4476854 6.5379192"/><path d="m92.0818419 12.0709188c-1.1624667-.5661367-2.2028313-1.8381164-2.4761167-2.17787649-.0329979-.04094669-.0879292-.04923352-.130425-.02027836-.6883542.46776725-1.4961667.88191375-1.7924625 1.02922435-.0601208.0297351-.0785292.1133833-.0389708.1705137 1.0811958 1.5644561 2.0699583 2.1849934 2.2465021 2.2879451.0188.0108216.0390687.0144289.059925.0118941l1.8079333-.223452c.0393625-.0048746.0726542-.0332448.0860687-.0732166l.2924771-.8662175c.0185063-.0549855-.0054833-.1144557-.0549312-.1385363"/><path d="m10.5225265 1.01053509h-5.78139171l.04690209-.07984605c.13884583-.23661338.2637875-.47927127.37296458-.72436646.03329166-.07458148-.01919167-.16105699-.09586042-.16105699h-2.29722291c-.03857917 0-.07333959.0234956-.09096459.06044512-.46148125.96614693-1.14650625 1.67530462-2.52781666 2.21346113-.04102709.01598871-.06961876.05791032-.06961876.10480403v2.09003611c0 .07477646.06854167.12937205.13522292.10850873 1.53699792-.47975873 2.33100417-1.19232865 2.496875-1.32950006.01850625-.01520877.0405375-.02330062.06364584-.02330062h5.36661666c.11417083.00526457.19769375.04182412.25017708.10928867.05385417.06902442.07314376.16719899.05796667.29159894-1.57342291 4.06103433-6.41452083 4.47869058-8.27307708 4.56623851-.05591042.00263228-.09742709.05176831-.09742709.11201844v1.98571951c0 .0633699.04974167.1146508.10868751.1131256 9.2807375-.2467873 10.92231037-5.87871216 10.92231037-8.39449637v-.5753985c0-.24616761-.1243541-.46727974-.5879895-.46727974" transform="translate(85.775 5.677746)"/><path d="m59.1702779 23.0532504c-.2743625-.4648425.0102813-1.2022729.3589625-1.9300516l6.715125-14.4215221c.1452104-.29871586.2348042-.66382386-.4236854-.66382386h-10.1527833c-.0591417 0-.1072188.05020845-.1072188.11221343v2.22584264c0 .06210248.0480771.11231092.1072188.11231092h6.2318083c.0588479.00175486.2004354.01676865.2765167.12050027.0483708.06590467.0609041.15247767.0371104.25747669l-.0036229.01082163-5.8071438 12.74602248c-.5315896 1.2901133-.5565583 2.4795172-.069325 3.2543846.4908563.7800344 1.4662042 1.1756575 2.8992146 1.1756575h14.8945937c.0592396 0 .1074146-.050306.1074146-.1124085v-2.2947695c0-.0621025-.048175-.112311-.1074146-.112311h-13.627552c-.7035313 0-1.1384771-.1572547-1.3292188-.4803436"/><path d="m29.3354319 12.1665001c-.3381063-2.99856519-2.8049209-5.35027016-5.8800917-5.45507419-.0279062-.00107241-.0550292.00302226-.0813687.00887179-.0140021-.0049721-.0284938-.00887179-.0441605-.00887179h-2.1002145c-.0522875 0-.0995813.03032005-.121123.07779872l-1.2130895 2.67576877c-.0396563.08754793.0247729.18679491.1211229.18679491h2.1414375c.4538437-.00653197.7861729.02330061 1.1568854.08062598 1.7253896.26693343 2.7979687 1.52672661 2.7732937 3.19686421-.0235 1.5783974-1.3395979 2.8354608-2.9250645 2.8354608h-7.669225c-.1306209 0-.2491.0760439-.3029542.1943018l-1.2729167 2.7896396c-.0615896.1347341.0376.2880892.1863354.2880892h8.9637813c3.7159375 0 6.6818333-3.1934519 6.2673521-6.8702698"/><path d="m50.1567746 12.1665001c-.3381063-2.99856519-2.8049209-5.35027016-5.8801896-5.45507419-.0279063-.00107241-.0549313.00302226-.0813688.00887179-.0139041-.0049721-.0283958-.00887179-.0440625-.00887179h-2.1003125c-.0521895 0-.0995812.03032005-.1211229.07779872l-1.2130896 2.67576877c-.0395583.08754793.024675.18679491.1212209.18679491h2.1413396c.4539416-.00653197.7862708.02330061 1.1569833.08062598 1.7252917.26693343 2.7978708 1.52672661 2.7731958 3.19686421-.0235 1.5783974-1.3395979 2.8354608-2.9250646 2.8354608h-7.669127c-.1306209 0-.2491.0760439-.3030521.1943018l-1.2729167 2.7896396c-.0614916.1347341.0376979.2880892.1863354.2880892h8.9638792c3.7158396 0 6.6817354-3.1934519 6.2673521-6.8702698"/></g></svg>