<svg height="15" viewBox="0 0 15 15" width="15" xmlns="http://www.w3.org/2000/svg"><g fill="none" fill-rule="evenodd"><path d="m-214-30h260v580h-260z" fill="#fff"/><g transform="translate(-194 -10)"><path d="m4 .5c-1.93299662 0-3.5 1.56700338-3.5 3.5v28c0 1.9329966 1.56700338 3.5 3.5 3.5h212c1.932997 0 3.5-1.5670034 3.5-3.5v-28c0-1.93299662-1.567003-3.5-3.5-3.5z" fill="#fff" stroke="#ddd"/><path d="m7 .5c-3.58985087 0-6.5 2.91014913-6.5 6.5 0 3.5898509 2.91014913 6.5 6.5 6.5 1.58599336 0 3.0825036-.5693953 4.2561371-1.5870861l.3518402-.3050905 2.9275659 2.9277198-2.9277198-2.9275659.3050905-.3518402c1.0176908-1.1736335 1.5870861-2.67014374 1.5870861-4.2561371 0-3.58985087-2.9101491-6.5-6.5-6.5z" opacity=".8" stroke="#999" transform="translate(194 10)"/></g></g></svg>