<svg height="244" viewBox="0 0 280 244" width="280" xmlns="http://www.w3.org/2000/svg" xmlns:xlink="http://www.w3.org/1999/xlink"><defs><linearGradient id="a" x1="50%" x2="48.658415%" y1="61.213285%" y2="44.221263%"><stop offset="0" stop-color="#fff" stop-opacity="0"/><stop offset="1" stop-color="#dee2ea"/></linearGradient><linearGradient id="b" x1="47.364856%" x2="35.78808%" y1="8.992503%" y2="37.810374%"><stop offset="0" stop-color="#dee2ea"/><stop offset="1" stop-color="#abb2b9"/></linearGradient><linearGradient id="c" x1="50%" x2="44.131151%" y1="9.45978%" y2="50%"><stop offset="0" stop-color="#dee2ea"/><stop offset="1" stop-color="#bdc3cb"/></linearGradient><linearGradient id="d" x1="33.638931%" x2="74.896888%" y1="71.45323%" y2="22.628242%"><stop offset="0" stop-color="#fff" stop-opacity="0"/><stop offset="1"/></linearGradient><linearGradient id="e" x1="60.858945%" x2="39.239063%" y1="0%" y2="76.405382%"><stop offset="0" stop-color="#abb6c4"/><stop offset="1" stop-color="#fff" stop-opacity=".47076"/></linearGradient><path id="f" d="m3.84714229 0h4.36027147v4.3600388c0 2.12471802-1.72242428 3.84714229-3.84714229 3.84714229h-4.36027147v-4.3600388c0-2.12471802 1.72242427-3.84714229 3.84714229-3.84714229z"/><linearGradient id="g" x1="68.901915%" x2="25.608096%" y1="75.912656%" y2="-8.83115%"><stop offset="0" stop-color="#fff" stop-opacity="0"/><stop offset="1" stop-color="#343434"/></linearGradient><linearGradient id="h" x1="74.359708%" x2="33.018133%" y1="39.942826%" y2="71.704777%"><stop offset="0" stop-color="#f1f1f1"/><stop offset="1" stop-color="#dee2ea"/></linearGradient><linearGradient id="i" x1="57.363466%" x2="40.555293%" y1="45.484702%" y2="66.495962%"><stop offset="0" stop-color="#ebeef1"/><stop offset="1" stop-color="#dee2ea"/></linearGradient><linearGradient id="j" x1="50%" x2="90.846327%" y1="66.079045%" y2="-13.896429%"><stop offset="0" stop-color="#6d87cf"/><stop offset="1" stop-color="#cddafd"/></linearGradient><path id="k" d="m0 29.8838432c11.5353918-7.8924286 17.5826848-17.7255406 18.1418791-29.49933608 3.0289717-.45278604 8.8799038.11217194 23.5599768 2.67021581 1.367099.23822084 1.4879799 2.41157984.3626426 6.520077 4.9494085 1.81891287 7.2172366 3.55153047 6.8034844 5.19785287-3.5872247 14.2735895-8.3329897 20.7813066-15.4954379 23.8393978-8.2159505 1.0452991-19.3401322-1.8641034-33.372545-8.7282074z"/><filter id="l" height="162.2%" width="124.5%" x="-12.3%" y="-15.6%"><feOffset dx="0" dy="12" in="SourceAlpha" result="shadowOffsetOuter1"/><feColorMatrix in="shadowOffsetOuter1" type="matrix" values="0 0 0 0 0.105882353   0 0 0 0 0.207843137   0 0 0 0 0.329411765  0 0 0 0.272192029 0"/></filter><linearGradient id="m" x1="7.624573%" x2="71.770415%" y1="102.541703%" y2="33.462242%"><stop offset="0" stop-color="#bfcbeb"/><stop offset="1" stop-color="#607dcb"/></linearGradient><path id="n" d="m17.4502651 5.71309115c1.4952718 9.22895275-5.0346651 18.66368195-13.17511171 25.39013135 6.83616511 3.6997177 19.24765711 8.8536983 29.28243561 11.9794135.4773667.1486941 1.9761677-.0357439 2.4420549.0455318 2.8165867.4913635 4.4086441-1.5556191 5.4819664-2.1718978 4.4234951-4.650677 8.7750847-8.0097048 10.9904253-14.531276 1.1358473-3.3437338 1.778678-6.1909435 1.8067554-7.4134355-3.5798514-3.3280893-12.1374089-3.2306091-36.8285259-13.29846735z"/><filter id="o" height="164%" width="124%" x="-12%" y="-16%"><feOffset dx="0" dy="12" in="SourceAlpha" result="shadowOffsetOuter1"/><feColorMatrix in="shadowOffsetOuter1" type="matrix" values="0 0 0 0 0.105882353   0 0 0 0 0.207843137   0 0 0 0 0.329411765  0 0 0 0.270720109 0"/></filter><mask id="p" fill="#fff"><use fill="#fff" fill-rule="evenodd" xlink:href="#f"/></mask></defs><g fill="none" fill-rule="evenodd" transform="translate(0 -15)"><path d="m24.9582173 134.578947h158.3021077v68.141889c0 .622153.369703 1.184814.940751 1.431754l94.356626 40.802925c.571048.24694.940751.809601.940751 1.431755v35.990553h-105.276995l-149.9510584-73.667707c-.5338354-.262262-.8720709-.805279-.8720709-1.400057v-71.171223c0-.861503.6983859-1.559889 1.5598886-1.559889z" fill="url(#a)"/><path d="m22.6183844 97.8642659 68.9142541 23.5180841v85.927977l-68.1343098-23.518083z" fill="url(#b)" transform="matrix(-1 0 0 1 114.151022 0)"/><path d="m91.2534819 97.8642659 91.3910151 21.1745931v85.927978l-91.3910151-21.174593z" fill="url(#c)"/><path d="m22.6183844 121.299169 91.3910146 21.174593v89.833795l-91.3910146-25.08041z" fill="#dee2ea"/><path d="m22.6183844 121.299169 91.3910146 21.174593v89.833795l-91.3910146-25.08041z" fill="url(#d)" opacity=".1"/><path d="m25.2019236 114.077156c22.365796-14.5953137 16.7223374-32.0446458 22.1058781-46.9698127 5.1369321-14.2414765 20.4117109-22.9211138 31.0060354-15.6967118 3.9989621 2.7269422 2.1911749 18.9284442-19.1090743 13.8648296-7.5039319-1.7838768-12.7690674-8.834139-10.7730272-22.244632 3.0515976-20.5023075 35.2877255-20.2694701 36.243555-20.9249957" style="stroke-width:1.835918;opacity:.5;stroke-linecap:round;stroke-linejoin:round;stroke-dasharray:1.835918 4.589796;stroke:url(#e)" transform="matrix(-.73135369609 -.68199836077 -.68199836077 .73135369609 206.71566916786 72.38169924619)"/><g transform="matrix(-.12186933814 -.99254615162 .99254615162 -.12186933814 113.38923137115 43.45407750341)"><path d="m7.78442851 14.5238048c3.17220949-3.4338433 4.75890199-6.02490943 4.76007739-7.77319825.001761-2.62243322-2.1256319-4.746905-4.75166608-4.74514161-2.62603417.00176558-4.75628391 2.12909814-4.75804663 4.75153137-.00117427 1.74828882 1.5820375 4.33722499 4.74963532 7.76680849z" fill="#dee2ea" opacity=".4" transform="matrix(.70710678 -.70710678 .70710678 .70710678 -3.562444 7.92877)"/><path d="m19.8781294 26.1880778c3.1722095-3.4338433 4.7589019-6.0249094 4.7600774-7.7731982.0017609-2.6224333-2.1256319-4.746905-4.7516661-4.7451416-2.6260342.0017655-4.7562839 2.1290981-4.7580466 4.7515313-.0011743 1.7482888 1.5820375 4.337225 4.7496353 7.7668085z" fill="#dee2ea" opacity=".4" transform="matrix(-.70710678 .70710678 -.70710678 -.70710678 48.034868 19.961122)"/><g transform="translate(9.93529 9.547737)"><use fill="#b2b8bf" xlink:href="#f"/><g fill="#f5f9ff"><path d="m1.73063141.43558306 1.29677877-.00087133-.006381 9.49667079-1.29677876.00087133z" mask="url(#p)" transform="matrix(.70710678 -.70710678 .70710678 .70710678 -2.969411 3.198173)"/><path d="m1.15488015.12275076.91634493-.91777729 6.70918511 6.71967236-.91634493.91777729z" mask="url(#p)"/></g></g><path d="m22.549602 7.491456 3.152562-.751439" stroke="#b2b8bf" stroke-width=".5"/><path d="m21.253694 6.195586 1.212948-3.125431" stroke="#b2b8bf" stroke-width=".5"/><ellipse cx="19.438612" cy="8.683823" fill="#c6cad1" rx="3.455753" ry="3.455655"/></g><path d="m113.871866 118.955679 69.694199 23.518083v89.833795l-68.914254-27.4239z" fill="#dee2ea" transform="matrix(-1 0 0 1 297.43793 0)"/><path d="m113.871866 118.955679 69.694199 23.518083v89.833795l-68.914254-27.4239z" fill="url(#g)" opacity=".323288" transform="matrix(-1 0 0 1 297.43793 0)"/><path d="m138.050088 118.892428-24.365413 34.020282 70.530215 27.884346 23.427071-38.922624z" fill="url(#h)" transform="matrix(-1 0 0 1 321.326636 0)"/><path d="m22.9913998 0-22.9913998 35.5355472 88.8639608 23.8328739 25.7878502-38.1932219z" fill="url(#i)" transform="translate(0 120.518006)"/><g transform="translate(25.738162 66.617729)"><path d="m42.0561471 3.217186c1.5769413 1.55432988 2.9211924 3.06153671 4.0327533 4.52162047 2.3139749 3.03950693 3.00486 7.24076313 2.8439663 7.34686923-.8777648.5788683-5.8963537-2.7604242-6.8767196-5.47259239-.5877297-1.62594583-.5877297-3.7579116 0-6.39589731z" fill="#607dcb"/><use fill="#000" filter="url(#l)" xlink:href="#k"/><use fill="url(#j)" fill-rule="evenodd" xlink:href="#k"/></g><g transform="matrix(.75470958 .65605903 -.65605903 .75470958 173.43155 128.359633)"><g transform="matrix(.97029573 -.2419219 .2419219 .97029573 -5.047357 7.809258)"><use fill="#000" filter="url(#o)" xlink:href="#n"/><use fill="url(#m)" fill-rule="evenodd" xlink:href="#n"/></g><path d="m40.6338193 34.9432952c1.8392617 1.8060754.1356857 6.6259076-3.4786555 6.5414949 3.8398603.0517047 5.911095-1.3467347 7.4029126-2.7497916s8.4954982-7.91596 7.6369153-25.5820263c.1123833 14.9345807-3.5528686 22.2252315-11.5611724 21.790323z" fill="#4a69bb"/></g></g></svg>