<svg xmlns="http://www.w3.org/2000/svg" width="14" height="14" viewBox="0 0 14 14"><path fill="#2932E1" d="M7,0 L7,0 C3.13400755,0 0,3.13400755 0,7 C0,7 0,7 0,7 L0,7 C0,10.8660098 3.13400755,14.0000173 7,14.0000173 L7,14.0000173 C10.8660084,14.0000173 14.000016,10.8660098 14.000016,7 L14.000016,7 C14.000016,3.13400861 10.8660084,0 7,0 L7,0 Z M6.88930852,9.94833549 C7.21622667,9.93576419 7.4914375,10.1905932 7.50400904,10.5175113 L7.50400904,10.5175113 L7.50400904,10.5630368 C7.49143774,10.889955 7.21622667,11.1447842 6.88930852,11.1322127 C6.56239037,11.1196414 6.30756117,10.8444303 6.32013266,10.5175122 L6.32013266,10.5175122 L6.33060888,10.4267388 C6.38223791,10.1609864 6.61095033,9.95903965 6.88930852,9.94833549 Z M6.9921336,2.8909989 C7.68252171,2.88978156 8.34332932,3.17117818 8.82088573,3.66975376 C9.26013624,4.1326293 9.4841365,4.72762999 9.45088646,5.34538071 C9.41763643,5.97800645 9.2233862,6.47763203 8.25213507,7.44800816 C7.80955955,7.89058367 7.51369546,8.23393407 7.43598487,8.5348303 L7.41825909,8.63363464 C7.39588787,8.85742952 7.22604721,9.0338123 7.01087397,9.07031116 L6.929,9.077 L6.88013332,9.07463556 C6.60994121,9.04746842 6.41268863,8.80677451 6.43913281,8.53650993 C6.50563288,7.85400914 7.00613347,7.3027585 7.55738411,6.75150786 C8.38667919,5.92221277 8.44786265,5.62462765 8.46532207,5.3451887 L8.4682602,5.29288053 C8.48225838,4.99167784 8.38830495,4.69712169 8.20611596,4.46089356 L8.10775983,4.34787949 C7.81734836,4.04532465 7.41588559,3.87462425 6.99650854,3.87537894 L6.99475857,3.87537894 C6.23199702,3.87764582 5.60604809,4.45989683 5.53424846,5.20405559 L5.52738186,5.34538065 C5.52738186,5.61720929 5.30702243,5.83756872 5.03519379,5.83756872 C4.76336515,5.83756872 4.54300572,5.61720929 4.54300572,5.34538065 C4.54300572,4.75554246 4.74854346,4.19830682 5.12708727,3.7553218 L5.25963149,3.6120037 C5.67192267,3.19623274 6.21843686,2.94437592 6.79789833,2.898576 L6.9921336,2.8909989 Z"/></svg>