<svg version="1.1" xmlns="http://www.w3.org/2000/svg" width="32" height="32" viewBox="0 0 32 32">
    <path d="M14.45 24v0c-0.001 0.015-0.001 0.032-0.001 0.050 0 0.746 0.605 1.351 1.351 1.351 0.729 0 1.322-0.577 1.35-1.298l0-0.003v-0.1c0-0.746-0.604-1.35-1.35-1.35s-1.35 0.604-1.35 1.35v0zM15.84 20.71h-0.11c-0.568-0.060-1.006-0.536-1.006-1.114 0-0.041 0.002-0.081 0.006-0.121l-0 0.005c0.15-1.56 1.29-2.82 2.55-4.080 2-2 2.050-2.65 2.090-3.33 0.002-0.035 0.002-0.077 0.002-0.118 0-0.795-0.318-1.516-0.833-2.042l0 0.001c-0.639-0.648-1.527-1.050-2.508-1.050-0.011 0-0.022 0-0.034 0h0.002c-1.853 0.006-3.354 1.507-3.36 3.359v0.001c-0.056 0.577-0.538 1.024-1.125 1.024s-1.069-0.447-1.125-1.019l-0-0.005c-0-0.021-0-0.045-0-0.069 0-1.537 0.627-2.928 1.64-3.93l0-0c1.008-1.019 2.407-1.65 3.953-1.65 0.017 0 0.033 0 0.049 0l-0.003-0c0.002 0 0.005 0 0.008 0 1.639 0 3.119 0.682 4.17 1.778l0.002 0.002c0.895 0.917 1.447 2.171 1.447 3.555 0 0.097-0.003 0.193-0.008 0.288l0.001-0.013c-0.070 1.44-0.52 2.59-2.74 4.8-1.17 1.17-1.91 2.020-1.91 2.75-0.072 0.563-0.545 0.994-1.119 1h-0.001zM25.72 25.71v0c-2.476 2.472-5.895 4-9.671 4-0.017 0-0.035-0-0.052-0h0.003c-0.017 0-0.037 0-0.058 0-3.773 0-7.189-1.529-9.662-4l0 0c-2.472-2.482-4-5.906-4-9.687 0-0.015 0-0.030 0-0.045v0.002c0.031-7.57 6.175-13.695 13.75-13.695 3.781 0 7.205 1.526 9.691 3.996l-0.001-0.001c2.472 2.476 4 5.895 4 9.671 0 0.017-0 0.035-0 0.052v-0.003c0 0.021 0 0.045 0 0.070 0 3.769-1.529 7.181-4 9.65l-0 0zM16 0v0c-8.837 0-16 7.163-16 16s7.163 16 16 16c8.837 0 16-7.163 16-16v0c0-8.837-7.163-16-16-16v0z"></path>
</svg>
