<?xml version="1.0" encoding="utf-8"?>
<!DOCTYPE svg PUBLIC "-//W3C//DTD SVG 1.1//EN" "http://www.w3.org/Graphics/SVG/1.1/DTD/svg11.dtd">
<svg xmlns="http://www.w3.org/2000/svg" xmlns:xlink="http://www.w3.org/1999/xlink" version="1.1" baseProfile="full" width="76" height="76" viewBox="0 0 76.00 76.00" enable-background="new 0 0 76.00 76.00" xml:space="preserve">
	<path fill="#999999" fill-opacity="1" stroke-width="0.2" stroke-linejoin="round" d="M 17.4167,53.8333L 17.4167,49.0833L 22.1667,49.0833L 22.1667,28.5L 17.4167,28.5L 17.4167,23.75L 22.1667,23.75L 22.1667,19L 26.9167,19L 26.9167,23.75L 48.6875,23.75L 53.4375,19L 57,22.5625L 52.25,27.3125L 52.25,49.0833L 57,49.0833L 57,53.8333L 52.25,53.8333L 52.25,58.5833L 47.5,58.5833L 47.5,53.8333L 26.9167,53.8333L 26.9167,58.5833L 22.1667,58.5833L 22.1667,53.8333L 17.4167,53.8333 Z M 30.4792,49.0833L 47.5,49.0833L 47.5,32.0625L 30.4792,49.0833 Z M 26.9167,45.5208L 43.9375,28.5L 26.9167,28.5L 26.9167,45.5208 Z "/>
</svg>
