<svg version="1.1" xmlns="http://www.w3.org/2000/svg" width="34" height="32" viewBox="0 0 34 32">
    <path d="M30.933 32h-27.733c-1.707 0-3.2-1.493-3.2-3.2v-25.6c0-1.707 1.493-3.2 3.2-3.2h27.733c1.707 0 3.2 1.493 3.2 3.2v25.6c0 1.707-1.493 3.2-3.2 3.2zM3.2 2.133c-0.64 0-1.067 0.427-1.067 1.067v25.6c0 0.64 0.427 1.067 1.067 1.067h27.733c0.64 0 1.067-0.427 1.067-1.067v-25.6c0-0.64-0.427-1.067-1.067-1.067h-27.733z"></path>
    <path d="M24.533 13.867c-2.347 0-4.267-1.92-4.267-4.267s1.92-4.267 4.267-4.267 4.267 1.92 4.267 4.267-1.92 4.267-4.267 4.267zM24.533 7.467c-1.28 0-2.133 0.853-2.133 2.133s0.853 2.133 2.133 2.133 2.133-0.853 2.133-2.133-0.853-2.133-2.133-2.133z"></path>
    <path d="M31.36 31.36l-8.533-10.667-5.973 6.187-6.4-9.813-7.467 13.653-1.92-1.067 9.173-16.64 7.040 10.453 5.547-6.187 10.24 12.8z"></path>
</svg>
