<svg version="1.1" xmlns="http://www.w3.org/2000/svg" width="32" height="32" viewBox="0 0 32 32">
    <path d="M1.067 0v0c0.64 0 1.067 0.427 1.067 1.067v29.867c0 0.64-0.427 1.067-1.067 1.067v0c-0.64 0-1.067-0.427-1.067-1.067v-29.867c0-0.64 0.427-1.067 1.067-1.067z"></path>
    <path d="M32 30.933v0c0 0.64-0.427 1.067-1.067 1.067h-29.867c-0.64 0-1.067-0.427-1.067-1.067v0c0-0.64 0.427-1.067 1.067-1.067h29.867c0.64 0 1.067 0.427 1.067 1.067z"></path>
    <path d="M26.24 23.68c-0.427 0-0.64-0.213-0.853-0.427l-8.747-14.933h-8.533c-0.64 0-1.067-0.427-1.067-1.067s0.427-1.067 1.067-1.067h8.96c0.427 0 0.64 0.213 0.853 0.427l9.173 15.573c0.213 0.427 0.213 1.067-0.427 1.493 0 0-0.213 0-0.427 0z"></path>
    <path d="M27.733 17.28v0c0.64 0.213 0.853 0.64 0.853 1.28l-1.067 4.053c-0.213 0.64-0.64 0.853-1.28 0.853v0c-0.64-0.213-0.853-0.64-0.853-1.28l1.067-4.053c0-0.64 0.64-1.067 1.28-0.853z"></path>
    <path d="M20.693 21.547v0c0 0.64 0.213 1.067 0.853 1.28l4.267 0.64c0.64 0 1.067-0.213 1.28-0.853v0c0-0.64-0.213-1.067-0.853-1.28l-4.267-0.64c-0.64 0-1.067 0.213-1.28 0.853z"></path>
</svg>
