<svg version="1.1" xmlns="http://www.w3.org/2000/svg" width="32" height="32" viewBox="0 0 32 32">
    <path d="M32 12.571v-8l-2.606 2.606c-2.907-4.348-7.796-7.172-13.344-7.172-8.837 0-16 7.163-16 16s7.163 16 16 16c6.672 0 12.39-4.084 14.791-9.888l0.039-0.106c0.063-0.152 0.099-0.328 0.099-0.513 0-0.571-0.349-1.060-0.845-1.267l-0.009-0.003c-0.152-0.063-0.328-0.099-0.513-0.099-0.571 0-1.060 0.349-1.267 0.845l-0.003 0.009c-2.030 4.895-6.771 8.275-12.301 8.275-7.334 0-13.28-5.946-13.28-13.28s5.946-13.28 13.28-13.28c4.81 0 9.023 2.557 11.353 6.387l0.033 0.059-3.429 3.406z"></path>
</svg>
