<svg version="1.1" xmlns="http://www.w3.org/2000/svg" width="28" height="32" viewBox="0 0 28 32">
    <path d="M26.846 14.886c-0.373-0.141-0.791-0.071-1.099 0.184s-0.457 0.656-0.392 1.053c0.099 0.595 0.149 1.244 0.149 1.884 0.009 3.117-1.218 6.108-3.407 8.307-2.178 2.21-5.142 3.448-8.231 3.437-3.088 0.009-6.052-1.23-8.231-3.44-2.189-2.199-3.416-5.191-3.407-8.309 0-3.137 1.21-6.091 3.407-8.309 2.179-2.21 5.142-3.448 8.231-3.439 0.129 0 0.26 0.003 0.39 0.007l-2.532 2.553c-0.209 0.211-0.327 0.497-0.327 0.795s0.118 0.585 0.327 0.795c0.436 0.44 1.142 0.44 1.576 0l4.204-4.244c0.209-0.211 0.327-0.497 0.327-0.795s-0.118-0.585-0.327-0.795l-4.205-4.239c-0.209-0.211-0.492-0.33-0.788-0.33s-0.579 0.119-0.788 0.33c-0.209 0.211-0.327 0.497-0.327 0.795s0.118 0.585 0.327 0.795l2.064 2.079c-3.65 0.018-7.144 1.492-9.722 4.1-2.607 2.623-4.070 6.186-4.066 9.901-0.005 3.714 1.457 7.276 4.061 9.899 2.598 2.629 6.127 4.105 9.806 4.1 1.873 0 3.686-0.369 5.398-1.1 1.648-0.7 3.145-1.718 4.407-2.996 1.266-1.275 2.275-2.785 2.972-4.447 0.725-1.725 1.090-3.56 1.090-5.451 0-0.771-0.062-1.531-0.18-2.253-0.065-0.395-0.335-0.726-0.707-0.867z"></path>
</svg>
