<svg width="16" height="16" xmlns="http://www.w3.org/2000/svg" xmlns:xlink="http://www.w3.org/1999/xlink"><defs><path id="a" d="M0 0h16v16H0z"/></defs><g fill="none" fill-rule="evenodd"><mask id="b" fill="#fff"><use xlink:href="#a"/></mask><path d="M7.567 9.033a.624.624 0 0 1 .881.015l4.76 4.76a.624.624 0 0 1 .016.882.624.624 0 0 1-.882-.015L8.03 10.363 3.673 14.72a.624.624 0 0 1-.882-.015.624.624 0 0 1-.015-.881ZM2.79 1.21a.624.624 0 0 1 .882-.016L8.03 5.551l4.312-4.312a.624.624 0 0 1 .882-.015.624.624 0 0 1-.015.881l-4.76 4.76a.624.624 0 0 1-.882.015l-4.79-4.79a.624.624 0 0 1 .014-.881Z" fill="#999" mask="url(#b)"/></g></svg>