<?xml version="1.0" encoding="UTF-8"?>
<svg width="16px" height="16px" viewBox="0 0 16 16" version="1.1" xmlns="http://www.w3.org/2000/svg" xmlns:xlink="http://www.w3.org/1999/xlink">
    <title>收起全部</title>
    <defs>
        <rect id="path-1" x="0" y="0" width="16" height="16"></rect>
    </defs>
    <g id="页面-1" stroke="none" stroke-width="1" fill="none" fill-rule="evenodd">
        <g id="1.2网格展开，右下角出现缩略地图" transform="translate(-698.000000, -91.000000)">
            <g id="形状结合" transform="translate(698.000000, 91.000000)">
                <mask id="mask-2" fill="white">
                    <use xlink:href="#path-1"></use>
                </mask>
                <use id="蒙版" fill="#D8D8D8" opacity="0" xlink:href="#path-1"></use>
                <path d="M7.56666006,9.03333994 C7.80600238,8.79399762 8.20070348,8.80070348 8.44831908,9.04831908 L8.44831908,9.04831908 L13.2085352,13.8085352 C13.4561508,14.0561508 13.4628566,14.4508519 13.2235143,14.6901942 C12.984172,14.9295365 12.5894709,14.9228306 12.3418553,14.6752151 L12.3418553,14.6752151 L8.02995827,10.363318 L3.67312385,14.7201525 C3.43385086,14.9594254 3.03908042,14.9527889 2.79146483,14.7051733 C2.54384923,14.4575577 2.53721271,14.0627873 2.77648569,13.8235143 L2.77648569,13.8235143 Z M2.79146483,1.20853517 C3.03908042,0.96091958 3.433753,0.954185191 3.67306012,1.19349231 L3.67306012,1.19349231 L8.03008573,5.55051792 L12.3419827,1.2386209 C12.5895983,0.991005306 12.9842709,0.984270917 13.223578,1.22357804 C13.4628852,1.46288515 13.4561508,1.85755773 13.2085352,2.10517333 L13.2085352,2.10517333 L8.44831908,6.86538942 C8.20070348,7.11300501 7.8060309,7.1197394 7.56672379,6.88043229 L7.56672379,6.88043229 L2.77642196,2.09013046 C2.53711485,1.85082334 2.54384923,1.45615077 2.79146483,1.20853517 Z" fill="#999999" mask="url(#mask-2)"></path>
            </g>
        </g>
    </g>
</svg>