<svg version="1.1" xmlns="http://www.w3.org/2000/svg" width="32" height="32" viewBox="0 0 32 32">
    <path d="M22.949 26.32c2.947 0 5.209-0.868 6.788-2.578 1.5-1.631 2.263-5.459 2.263-8.354 0-2.947-0.71-5.92-2.105-7.498-1.526-1.736-3.762-2.578-6.735-2.578h-6.735v21.009h6.525zM22.581 24.159h-3.95v-16.801h4.187c2.473 0 4.265 0.509 5.422 1.799 1.079 1.21 1.655 3.705 1.655 6.231 0 2.447-0.631 5.704-1.789 6.967-1.237 1.289-3.078 1.804-5.525 1.804z"></path>
    <path d="M6.604 26.689c1.947 0 3.526-0.605 4.736-1.815 1.184-1.181 1.789-2.708 1.789-4.581 0-1.21-0.316-2.218-0.947-3.025-0.579-0.807-1.421-1.383-2.526-1.757 2.052-0.749 3.078-2.305 3.078-4.61 0-1.729-0.553-3.083-1.631-4.091-1.105-1.008-2.578-1.498-4.367-1.498s-3.236 0.547-4.341 1.671c-1.158 1.124-1.842 2.679-2 4.667h2.131c0.132-1.383 0.553-2.449 1.289-3.198 0.71-0.749 1.684-1.095 2.947-1.095 1.21 0 2.184 0.317 2.868 1.008 0.631 0.634 0.974 1.527 0.974 2.679s-0.342 2.046-1 2.679c-0.658 0.605-1.605 0.922-2.868 0.922h-1.447v1.844h1.526c1.316 0 2.315 0.317 3.052 1.008s1.105 1.642 1.105 2.881c0 1.21-0.395 2.218-1.131 3.025-0.816 0.835-1.894 1.268-3.236 1.268-1.184 0-2.157-0.375-2.947-1.066-0.921-0.835-1.421-2.074-1.473-3.688h-2.184c0.158 2.305 0.895 4.062 2.236 5.272 1.131 0.98 2.578 1.498 4.367 1.498z"></path>
</svg>
