<svg height="31" viewBox="0 0 50 31" width="50" xmlns="http://www.w3.org/2000/svg"><g fill="#fff" fill-rule="evenodd" transform="translate(0 .0625)"><path d="m2.446115.0742695c-1.32588958 0-2.40434375 1.0740707-2.40434375 2.39411403s1.07845417 2.39382156 2.40434375 2.39382156 2.40434375-1.07377823 2.40434375-2.39382156-1.07845417-2.39411403-2.40434375-2.39411403" transform="translate(23.010417 .023203)"/><path d="m.23204292 23.3006269h3.46595625c.06922708 0 .13199166-.0401668.16068125-.1029517l10.45446458-22.89241762c.0531687-.1163081-.0322146-.24831243-.1605833-.24831243h-3.4659563c-.0691292 0-.1318937.04026424-.1605833.10295168l-10.45456252 22.89241757c-.05307083.1163081.0323125.2483125.16058334.2483125" transform="translate(24.0875 6.652667)"/><path d="m2.48757292.0742695c-1.32588959 0-2.40434375 1.0740707-2.40434375 2.39411403s1.07845416 2.39382156 2.40434375 2.39382156c1.32588958 0 2.40434375-1.07377823 2.40434375-2.39382156s-1.07845417-2.39411403-2.40434375-2.39411403" transform="translate(43.866667 .023203)"/><path d="m17.4206283.05694515h-3.4659562c-.0691292 0-.1318938.04026424-.1605834.10304917l-4.08253745 8.93954011h-8.13765833c-.1075125 0-.2050375.06278493-.24900209.16047204l-1.31139791 2.91052983c-.04513959.1002219.02849375.2135077.13884583.2135077h8.05922708l-4.87203958 10.6682704c-.05307083.1163081.0323125.2483125.16058333.2483125h3.46595625c.06922709 0 .13199167-.0401668.16058334-.1029517l10.45456253-22.89241762c.0531687-.1163081-.0322146-.24831243-.1605834-.24831243" transform="translate(0 6.652667)"/><path d="m29.3354319 12.1665001c-.3381063-2.99856519-2.8049209-5.35027016-5.8800917-5.45507419-.0279062-.00107241-.0550292.00302226-.0813687.00887179-.0140021-.0049721-.0284938-.00887179-.0441605-.00887179h-2.1002145c-.0522875 0-.0995813.03032005-.121123.07779872l-1.2130895 2.67576877c-.0396563.08754793.0247729.18679491.1211229.18679491h2.1414375c.4538437-.00653197.7861729.02330061 1.1568854.08062598 1.7253896.26693343 2.7979687 1.52672661 2.7732937 3.19686421-.0235 1.5783974-1.3395979 2.8354608-2.9250645 2.8354608h-7.669225c-.1306209 0-.2491.0760439-.3029542.1943018l-1.2729167 2.7896396c-.0615896.1347341.0376.2880892.1863354.2880892h8.9637813c3.7159375 0 6.6818333-3.1934519 6.2673521-6.8702698"/><path d="m50.1567746 12.1665001c-.3381063-2.99856519-2.8049209-5.35027016-5.8801896-5.45507419-.0279063-.00107241-.0549313.00302226-.0813688.00887179-.0139041-.0049721-.0283958-.00887179-.0440625-.00887179h-2.1003125c-.0521895 0-.0995812.03032005-.1211229.07779872l-1.2130896 2.67576877c-.0395583.08754793.024675.18679491.1212209.18679491h2.1413396c.4539416-.00653197.7862708.02330061 1.1569833.08062598 1.7252917.26693343 2.7978708 1.52672661 2.7731958 3.19686421-.0235 1.5783974-1.3395979 2.8354608-2.9250646 2.8354608h-7.669127c-.1306209 0-.2491.0760439-.3030521.1943018l-1.2729167 2.7896396c-.0614916.1347341.0376979.2880892.1863354.2880892h8.9638792c3.7158396 0 6.6817354-3.1934519 6.2673521-6.8702698"/></g></svg>